<mxfile host="app.diagrams.net" modified="2023-11-05T06:42:15.277Z" agent="Mozilla/5.0 (Windows NT 10.0; Win64; x64) AppleWebKit/537.36 (KHTML, like Gecko) Chrome/118.0.0.0 Safari/537.36" etag="JC76_Dn0fKW-bQMI3vQk" version="22.0.8" type="device">
  <diagram name="Page-1" id="8xlZJd8uyztZ-d_EXcuE">
    <mxGraphModel dx="1909" dy="985" grid="1" gridSize="10" guides="1" tooltips="1" connect="1" arrows="1" fold="1" page="1" pageScale="1" pageWidth="827" pageHeight="1169" math="0" shadow="0">
      <root>
        <mxCell id="0" />
        <mxCell id="1" parent="0" />
        <mxCell id="scLiUEr0wlwhY-LounA5-209" value="" style="rounded=0;whiteSpace=wrap;html=1;fillColor=none;align=center;verticalAlign=middle;strokeColor=#6666FF;" parent="1" vertex="1">
          <mxGeometry x="270" y="40" width="2010" height="1050" as="geometry" />
        </mxCell>
        <mxCell id="scLiUEr0wlwhY-LounA5-206" value="Node JS + Express Application" style="rounded=0;whiteSpace=wrap;html=1;fillColor=#f5f5f5;strokeColor=#666666;align=left;verticalAlign=top;fontColor=#333333;fontStyle=1" parent="1" vertex="1">
          <mxGeometry x="1360" y="120" width="840" height="910" as="geometry" />
        </mxCell>
        <mxCell id="scLiUEr0wlwhY-LounA5-205" value="Mobile Application(React Native)" style="rounded=0;whiteSpace=wrap;html=1;fillColor=#f5f5f5;strokeColor=#666666;verticalAlign=top;align=left;fontStyle=1;fontColor=#333333;" parent="1" vertex="1">
          <mxGeometry x="290" y="480" width="700" height="430" as="geometry" />
        </mxCell>
        <mxCell id="scLiUEr0wlwhY-LounA5-202" value="&amp;nbsp;Node JS" style="rounded=0;whiteSpace=wrap;html=1;fillColor=#f5f5f5;dashed=1;strokeWidth=2;strokeColor=#006600;gradientColor=none;align=left;verticalAlign=top;fontStyle=1;fontSize=14;fontColor=#006600;" parent="1" vertex="1">
          <mxGeometry x="1420" y="204.5" width="710" height="700" as="geometry" />
        </mxCell>
        <mxCell id="scLiUEr0wlwhY-LounA5-183" value="&lt;b&gt;&lt;font color=&quot;#0000ff&quot; style=&quot;font-size: 16px;&quot;&gt;Express JS&amp;nbsp;&amp;nbsp;&lt;/font&gt;&lt;/b&gt;" style="rounded=1;whiteSpace=wrap;html=1;dashed=1;arcSize=5;fillColor=#eeeeee;strokeColor=#0000FF;align=right;verticalAlign=top;fontColor=#006600;" parent="1" vertex="1">
          <mxGeometry x="1650" y="234.5" width="330" height="460" as="geometry" />
        </mxCell>
        <mxCell id="scLiUEr0wlwhY-LounA5-170" value="Security" style="rounded=0;whiteSpace=wrap;html=1;fillColor=#e1d5e7;dashed=1;align=left;verticalAlign=bottom;labelPosition=center;verticalLabelPosition=top;strokeColor=#9673a6;" parent="1" vertex="1">
          <mxGeometry x="1685" y="415.5" width="250" height="170" as="geometry" />
        </mxCell>
        <mxCell id="scLiUEr0wlwhY-LounA5-62" value="" style="rounded=0;whiteSpace=wrap;html=1;fillColor=#dae8fc;labelBackgroundColor=#D4E1F5;strokeColor=#6c8ebf;" parent="1" vertex="1">
          <mxGeometry x="340" y="540" width="240" height="320" as="geometry" />
        </mxCell>
        <mxCell id="scLiUEr0wlwhY-LounA5-24" value="Application Module" style="shape=module;align=left;spacingLeft=20;align=center;verticalAlign=top;whiteSpace=wrap;html=1;fillColor=#dae8fc;strokeColor=#6c8ebf;" parent="1" vertex="1">
          <mxGeometry x="351" y="577" width="210" height="180" as="geometry" />
        </mxCell>
        <mxCell id="scLiUEr0wlwhY-LounA5-25" value="Registration&lt;br&gt;Component" style="html=1;dropTarget=0;whiteSpace=wrap;fillColor=#bbe1e5;strokeColor=#7EA6E0;" parent="1" vertex="1">
          <mxGeometry x="381" y="617" width="120" height="35" as="geometry" />
        </mxCell>
        <mxCell id="scLiUEr0wlwhY-LounA5-26" value="" style="shape=module;jettyWidth=8;jettyHeight=4;fillColor=#BBE1E5;strokeColor=#7EA6E0;" parent="scLiUEr0wlwhY-LounA5-25" vertex="1">
          <mxGeometry x="1" width="20" height="20" relative="1" as="geometry">
            <mxPoint x="-27" y="7" as="offset" />
          </mxGeometry>
        </mxCell>
        <mxCell id="scLiUEr0wlwhY-LounA5-1" value="Redux State Management" style="rounded=1;whiteSpace=wrap;html=1;fillColor=#fad7ac;perimeterSpacing=0;shadow=0;glass=0;arcSize=5;imageWidth=24;strokeColor=#b46504;verticalAlign=bottom;align=left;labelPosition=center;verticalLabelPosition=top;" parent="1" vertex="1">
          <mxGeometry x="620" y="680" width="330" height="170" as="geometry" />
        </mxCell>
        <mxCell id="scLiUEr0wlwhY-LounA5-57" value="Login &lt;br&gt;Component" style="html=1;dropTarget=0;whiteSpace=wrap;fillColor=#bbe1e5;strokeColor=#7EA6E0;" parent="1" vertex="1">
          <mxGeometry x="381" y="664.5" width="120" height="35" as="geometry" />
        </mxCell>
        <mxCell id="scLiUEr0wlwhY-LounA5-58" value="" style="shape=module;jettyWidth=8;jettyHeight=4;fillColor=#bbe1e5;strokeColor=#7EA6E0;" parent="scLiUEr0wlwhY-LounA5-57" vertex="1">
          <mxGeometry x="1" width="20" height="20" relative="1" as="geometry">
            <mxPoint x="-27" y="7" as="offset" />
          </mxGeometry>
        </mxCell>
        <mxCell id="scLiUEr0wlwhY-LounA5-47" value="Events&lt;br&gt;Component" style="html=1;dropTarget=0;whiteSpace=wrap;fillColor=#BBE1E5;strokeColor=#7EA6E0;" parent="1" vertex="1">
          <mxGeometry x="381" y="712" width="120" height="35" as="geometry" />
        </mxCell>
        <mxCell id="scLiUEr0wlwhY-LounA5-48" value="" style="shape=module;jettyWidth=8;jettyHeight=4;fillColor=#bbe1e5;strokeColor=#7EA6E0;" parent="scLiUEr0wlwhY-LounA5-47" vertex="1">
          <mxGeometry x="1" width="20" height="20" relative="1" as="geometry">
            <mxPoint x="-27" y="7" as="offset" />
          </mxGeometry>
        </mxCell>
        <mxCell id="scLiUEr0wlwhY-LounA5-55" value="Event Detail&lt;br&gt;Component" style="html=1;dropTarget=0;whiteSpace=wrap;direction=south;horizontal=0;fillColor=#bbe1e5;strokeColor=#7EA6E0;" parent="1" vertex="1">
          <mxGeometry x="511" y="617" width="35" height="130" as="geometry" />
        </mxCell>
        <mxCell id="scLiUEr0wlwhY-LounA5-56" value="" style="shape=module;jettyWidth=8;jettyHeight=4;fillColor=#BBE1E5;strokeColor=#7EA6E0;" parent="scLiUEr0wlwhY-LounA5-55" vertex="1">
          <mxGeometry x="1" width="20" height="20" relative="1" as="geometry">
            <mxPoint x="-27" y="7" as="offset" />
          </mxGeometry>
        </mxCell>
        <mxCell id="scLiUEr0wlwhY-LounA5-4" style="edgeStyle=orthogonalEdgeStyle;rounded=0;orthogonalLoop=1;jettySize=auto;html=1;exitX=0.25;exitY=1;exitDx=0;exitDy=0;entryX=0.25;entryY=0;entryDx=0;entryDy=0;fillColor=#dae8fc;strokeColor=#6c8ebf;endArrow=block;endFill=1;" parent="1" source="scLiUEr0wlwhY-LounA5-5" target="scLiUEr0wlwhY-LounA5-10" edge="1">
          <mxGeometry relative="1" as="geometry" />
        </mxCell>
        <mxCell id="scLiUEr0wlwhY-LounA5-84" style="edgeStyle=orthogonalEdgeStyle;rounded=0;orthogonalLoop=1;jettySize=auto;html=1;endArrow=block;endFill=1;strokeColor=#6666FF;" parent="1" source="scLiUEr0wlwhY-LounA5-59" target="scLiUEr0wlwhY-LounA5-5" edge="1">
          <mxGeometry relative="1" as="geometry" />
        </mxCell>
        <mxCell id="scLiUEr0wlwhY-LounA5-59" value="" style="rounded=0;whiteSpace=wrap;html=1;fillColor=#7EA6E0;strokeColor=#6666FF;" parent="1" vertex="1">
          <mxGeometry x="340" y="540" width="240" height="30" as="geometry" />
        </mxCell>
        <mxCell id="scLiUEr0wlwhY-LounA5-5" value="API Service" style="rounded=0;whiteSpace=wrap;html=1;fillColor=#f5f5f5;gradientColor=#b3b3b3;strokeColor=#666666;" parent="1" vertex="1">
          <mxGeometry x="812" y="540" width="120" height="30" as="geometry" />
        </mxCell>
        <mxCell id="scLiUEr0wlwhY-LounA5-6" value="" style="edgeStyle=orthogonalEdgeStyle;orthogonalLoop=1;jettySize=auto;html=1;curved=1;shape=flexArrow;strokeColor=#6c8ebf;fillColor=#dae8fc;" parent="1" source="scLiUEr0wlwhY-LounA5-7" target="scLiUEr0wlwhY-LounA5-12" edge="1">
          <mxGeometry relative="1" as="geometry" />
        </mxCell>
        <mxCell id="scLiUEr0wlwhY-LounA5-7" value="Reducer" style="shape=process;whiteSpace=wrap;html=1;backgroundOutline=1;fillColor=#e1d5e7;strokeColor=#9673a6;" parent="1" vertex="1">
          <mxGeometry x="812" y="801" width="120" height="30" as="geometry" />
        </mxCell>
        <mxCell id="scLiUEr0wlwhY-LounA5-8" value="" style="edgeStyle=orthogonalEdgeStyle;rounded=0;orthogonalLoop=1;jettySize=auto;html=1;shape=flexArrow;strokeColor=#6c8ebf;fillColor=#dae8fc;" parent="1" source="scLiUEr0wlwhY-LounA5-10" target="scLiUEr0wlwhY-LounA5-7" edge="1">
          <mxGeometry relative="1" as="geometry" />
        </mxCell>
        <mxCell id="scLiUEr0wlwhY-LounA5-9" style="edgeStyle=orthogonalEdgeStyle;rounded=0;orthogonalLoop=1;jettySize=auto;html=1;exitX=0.75;exitY=0;exitDx=0;exitDy=0;entryX=0.75;entryY=1;entryDx=0;entryDy=0;fillColor=#dae8fc;strokeColor=#6c8ebf;endArrow=block;endFill=1;" parent="1" source="scLiUEr0wlwhY-LounA5-10" target="scLiUEr0wlwhY-LounA5-5" edge="1">
          <mxGeometry relative="1" as="geometry" />
        </mxCell>
        <mxCell id="scLiUEr0wlwhY-LounA5-10" value="Action" style="rounded=1;whiteSpace=wrap;html=1;fillColor=#f8cecc;strokeColor=#b85450;" parent="1" vertex="1">
          <mxGeometry x="812" y="710" width="120" height="30" as="geometry" />
        </mxCell>
        <mxCell id="scLiUEr0wlwhY-LounA5-11" value="" style="edgeStyle=orthogonalEdgeStyle;rounded=0;orthogonalLoop=1;jettySize=auto;html=1;shape=flexArrow;strokeColor=#6c8ebf;fillColor=#dae8fc;" parent="1" source="scLiUEr0wlwhY-LounA5-12" target="scLiUEr0wlwhY-LounA5-14" edge="1">
          <mxGeometry relative="1" as="geometry" />
        </mxCell>
        <mxCell id="scLiUEr0wlwhY-LounA5-12" value="Store" style="shape=datastore;whiteSpace=wrap;html=1;fillColor=#d5e8d4;strokeColor=#82b366;" parent="1" vertex="1">
          <mxGeometry x="660" y="801" width="80" height="30" as="geometry" />
        </mxCell>
        <mxCell id="scLiUEr0wlwhY-LounA5-13" value="" style="edgeStyle=orthogonalEdgeStyle;rounded=0;orthogonalLoop=1;jettySize=auto;html=1;shape=flexArrow;strokeColor=#6c8ebf;fillColor=#dae8fc;" parent="1" source="scLiUEr0wlwhY-LounA5-14" target="scLiUEr0wlwhY-LounA5-10" edge="1">
          <mxGeometry relative="1" as="geometry" />
        </mxCell>
        <mxCell id="scLiUEr0wlwhY-LounA5-61" style="rounded=0;orthogonalLoop=1;jettySize=auto;html=1;exitX=0;exitY=1;exitDx=0;exitDy=0;entryX=1;entryY=0;entryDx=0;entryDy=0;endArrow=none;endFill=0;strokeColor=#7EA6E0;dashed=1;" parent="1" source="scLiUEr0wlwhY-LounA5-14" target="scLiUEr0wlwhY-LounA5-55" edge="1">
          <mxGeometry relative="1" as="geometry" />
        </mxCell>
        <mxCell id="scLiUEr0wlwhY-LounA5-14" value="React Native Component" style="html=1;dropTarget=0;whiteSpace=wrap;fillColor=#BBE1E5;strokeColor=#7EA6E0;" parent="1" vertex="1">
          <mxGeometry x="635" y="710" width="130" height="30" as="geometry" />
        </mxCell>
        <mxCell id="scLiUEr0wlwhY-LounA5-15" value="" style="shape=module;jettyWidth=8;jettyHeight=4;fillColor=#BBE1E5;strokeColor=#7EA6E0;" parent="scLiUEr0wlwhY-LounA5-14" vertex="1">
          <mxGeometry x="1" width="20" height="20" relative="1" as="geometry">
            <mxPoint x="-27" y="7" as="offset" />
          </mxGeometry>
        </mxCell>
        <mxCell id="scLiUEr0wlwhY-LounA5-60" style="rounded=0;orthogonalLoop=1;jettySize=auto;html=1;exitX=0;exitY=0;exitDx=0;exitDy=0;entryX=0;entryY=0;entryDx=0;entryDy=0;endArrow=none;endFill=0;strokeColor=#7EA6E0;dashed=1;" parent="1" source="scLiUEr0wlwhY-LounA5-14" target="scLiUEr0wlwhY-LounA5-55" edge="1">
          <mxGeometry relative="1" as="geometry" />
        </mxCell>
        <mxCell id="scLiUEr0wlwhY-LounA5-68" value="" style="rounded=0;whiteSpace=wrap;html=1;fillColor=none;strokeColor=#6666FF;" parent="1" vertex="1">
          <mxGeometry x="351" y="546.5" width="19" height="17" as="geometry" />
        </mxCell>
        <mxCell id="scLiUEr0wlwhY-LounA5-69" value="" style="rounded=0;whiteSpace=wrap;html=1;strokeColor=#6666FF;fillColor=none;" parent="1" vertex="1">
          <mxGeometry x="480" y="546.5" width="81" height="17" as="geometry" />
        </mxCell>
        <mxCell id="scLiUEr0wlwhY-LounA5-81" value="" style="group;fillColor=none;strokeColor=none;" parent="1" vertex="1" connectable="0">
          <mxGeometry x="471" y="770" width="90" height="80" as="geometry" />
        </mxCell>
        <mxCell id="scLiUEr0wlwhY-LounA5-79" value="Google Map" style="rounded=1;whiteSpace=wrap;html=1;arcSize=5;verticalAlign=bottom;fillColor=#BBE1E5;strokeColor=#7EA6E0;" parent="scLiUEr0wlwhY-LounA5-81" vertex="1">
          <mxGeometry width="90" height="80" as="geometry" />
        </mxCell>
        <mxCell id="scLiUEr0wlwhY-LounA5-78" value="" style="sketch=0;outlineConnect=0;fontColor=#232F3E;gradientColor=none;fillColor=#DD344C;strokeColor=none;dashed=0;verticalLabelPosition=bottom;verticalAlign=top;align=center;html=1;fontSize=12;fontStyle=0;aspect=fixed;shape=mxgraph.aws4.location_service_map;" parent="scLiUEr0wlwhY-LounA5-81" vertex="1">
          <mxGeometry x="21" y="16" width="48" height="48" as="geometry" />
        </mxCell>
        <mxCell id="scLiUEr0wlwhY-LounA5-82" value="" style="rounded=0;whiteSpace=wrap;html=1;fillColor=none;strokeColor=#7EA6E0;" parent="1" vertex="1">
          <mxGeometry x="361" y="577" width="200" height="25" as="geometry" />
        </mxCell>
        <mxCell id="scLiUEr0wlwhY-LounA5-80" value="" style="group;fillColor=none;strokeColor=none;" parent="1" vertex="1" connectable="0">
          <mxGeometry x="360" y="770" width="90" height="80" as="geometry" />
        </mxCell>
        <mxCell id="scLiUEr0wlwhY-LounA5-63" value="Router" style="rounded=1;whiteSpace=wrap;html=1;arcSize=5;verticalAlign=bottom;fillColor=#BBE1E5;strokeColor=#7EA6E0;" parent="scLiUEr0wlwhY-LounA5-80" vertex="1">
          <mxGeometry width="90" height="80" as="geometry" />
        </mxCell>
        <mxCell id="scLiUEr0wlwhY-LounA5-71" value="" style="sketch=0;points=[[0.5,0,0],[1,0.5,0],[0.5,1,0],[0,0.5,0],[0.145,0.145,0],[0.8555,0.145,0],[0.855,0.8555,0],[0.145,0.855,0]];verticalLabelPosition=bottom;html=1;verticalAlign=top;aspect=fixed;align=center;pointerEvents=1;shape=mxgraph.cisco19.rect;prIcon=router;fillColor=none;strokeColor=#005073;" parent="scLiUEr0wlwhY-LounA5-80" vertex="1">
          <mxGeometry x="25" y="20" width="40" height="40" as="geometry" />
        </mxCell>
        <mxCell id="scLiUEr0wlwhY-LounA5-86" value="Webserver" style="group;strokeColor=#6c8ebf;fillColor=#dae8fc;verticalAlign=top;labelPosition=center;verticalLabelPosition=bottom;align=center;container=0;" parent="1" vertex="1" connectable="0">
          <mxGeometry x="1147" y="495.5" width="110" height="120" as="geometry" />
        </mxCell>
        <mxCell id="scLiUEr0wlwhY-LounA5-173" style="edgeStyle=orthogonalEdgeStyle;rounded=0;orthogonalLoop=1;jettySize=auto;html=1;shape=flexArrow;startArrow=block;fillColor=#ffe6cc;strokeColor=#d79b00;" parent="1" source="scLiUEr0wlwhY-LounA5-94" target="scLiUEr0wlwhY-LounA5-99" edge="1">
          <mxGeometry relative="1" as="geometry" />
        </mxCell>
        <mxCell id="scLiUEr0wlwhY-LounA5-94" value="Database&lt;br&gt;(Mongo Db)" style="shape=datastore;html=1;labelPosition=center;verticalLabelPosition=middle;align=center;verticalAlign=middle;fillColor=#eeeeee;strokeColor=#36393d;horizontal=1;" parent="1" vertex="1">
          <mxGeometry x="1462" y="934.5" width="86" height="80" as="geometry" />
        </mxCell>
        <mxCell id="scLiUEr0wlwhY-LounA5-204" style="edgeStyle=orthogonalEdgeStyle;rounded=0;orthogonalLoop=1;jettySize=auto;html=1;entryX=0;entryY=0.5;entryDx=0;entryDy=0;endArrow=block;endFill=1;startArrow=none;startFill=0;fillColor=#cce5ff;strokeColor=#6666FF;" parent="1" source="scLiUEr0wlwhY-LounA5-95" edge="1">
          <mxGeometry relative="1" as="geometry">
            <mxPoint x="1147" y="555.5" as="targetPoint" />
          </mxGeometry>
        </mxCell>
        <mxCell id="scLiUEr0wlwhY-LounA5-95" value="" style="outlineConnect=0;dashed=0;verticalLabelPosition=bottom;verticalAlign=top;align=center;html=1;shape=mxgraph.aws3.internet_gateway;fillColor=#F58534;gradientColor=none;" parent="1" vertex="1">
          <mxGeometry x="1010" y="519" width="69" height="72" as="geometry" />
        </mxCell>
        <mxCell id="scLiUEr0wlwhY-LounA5-153" value="" style="group;fillColor=none;strokeColor=none;" parent="1" vertex="1" connectable="0">
          <mxGeometry x="1450" y="744.5" width="110" height="120" as="geometry" />
        </mxCell>
        <mxCell id="scLiUEr0wlwhY-LounA5-99" value="Database Driver" style="rounded=1;whiteSpace=wrap;html=1;arcSize=5;verticalAlign=bottom;fillColor=#fad7ac;strokeColor=#b46504;" parent="scLiUEr0wlwhY-LounA5-153" vertex="1">
          <mxGeometry width="110" height="120" as="geometry" />
        </mxCell>
        <mxCell id="scLiUEr0wlwhY-LounA5-101" value="" style="outlineConnect=0;dashed=0;verticalLabelPosition=bottom;verticalAlign=top;align=center;html=1;shape=mxgraph.aws3.db_on_instance;fillColor=#F58534;gradientColor=none;" parent="scLiUEr0wlwhY-LounA5-153" vertex="1">
          <mxGeometry x="25" y="24.818181818181817" width="60" height="70.36363636363635" as="geometry" />
        </mxCell>
        <mxCell id="scLiUEr0wlwhY-LounA5-181" style="edgeStyle=orthogonalEdgeStyle;rounded=0;orthogonalLoop=1;jettySize=auto;html=1;entryX=1;entryY=0.75;entryDx=0;entryDy=0;shape=flexArrow;fillColor=#fff2cc;strokeColor=#d6b656;startArrow=block;gradientColor=#ffd966;" parent="1" source="scLiUEr0wlwhY-LounA5-161" target="scLiUEr0wlwhY-LounA5-174" edge="1">
          <mxGeometry relative="1" as="geometry" />
        </mxCell>
        <mxCell id="scLiUEr0wlwhY-LounA5-161" value="Controllers" style="html=1;whiteSpace=wrap;horizontal=1;flipV=0;flipH=1;direction=west;fillColor=#d5e8d4;strokeColor=#82b366;gradientColor=#97d077;" parent="1" vertex="1">
          <mxGeometry x="1710" y="615.5" width="200" height="40" as="geometry" />
        </mxCell>
        <mxCell id="scLiUEr0wlwhY-LounA5-167" style="edgeStyle=orthogonalEdgeStyle;rounded=0;orthogonalLoop=1;jettySize=auto;html=1;entryX=0.5;entryY=1;entryDx=0;entryDy=0;shape=flexArrow;fillColor=#d5e8d4;strokeColor=#82b366;gradientColor=#97d077;" parent="1" source="scLiUEr0wlwhY-LounA5-162" target="scLiUEr0wlwhY-LounA5-164" edge="1">
          <mxGeometry relative="1" as="geometry" />
        </mxCell>
        <mxCell id="scLiUEr0wlwhY-LounA5-162" value="CORS Middleware" style="html=1;whiteSpace=wrap;horizontal=1;flipV=0;flipH=1;direction=west;fillColor=#e1d5e7;strokeColor=#9673a6;" parent="1" vertex="1">
          <mxGeometry x="1710" y="345.5" width="200" height="40" as="geometry" />
        </mxCell>
        <mxCell id="scLiUEr0wlwhY-LounA5-166" value="" style="edgeStyle=orthogonalEdgeStyle;rounded=0;orthogonalLoop=1;jettySize=auto;html=1;shape=flexArrow;fillColor=#d5e8d4;strokeColor=#82b366;gradientColor=#97d077;" parent="1" source="scLiUEr0wlwhY-LounA5-163" target="scLiUEr0wlwhY-LounA5-162" edge="1">
          <mxGeometry relative="1" as="geometry" />
        </mxCell>
        <mxCell id="scLiUEr0wlwhY-LounA5-163" value="Router Middleware" style="html=1;whiteSpace=wrap;horizontal=1;flipV=1;flipH=1;direction=west;fillColor=#e1d5e7;strokeColor=#9673a6;" parent="1" vertex="1">
          <mxGeometry x="1710" y="269.5" width="200" height="40" as="geometry" />
        </mxCell>
        <mxCell id="scLiUEr0wlwhY-LounA5-168" style="edgeStyle=orthogonalEdgeStyle;rounded=0;orthogonalLoop=1;jettySize=auto;html=1;entryX=0.5;entryY=1;entryDx=0;entryDy=0;shape=flexArrow;fillColor=#d5e8d4;strokeColor=#82b366;gradientColor=#97d077;" parent="1" source="scLiUEr0wlwhY-LounA5-164" target="scLiUEr0wlwhY-LounA5-165" edge="1">
          <mxGeometry relative="1" as="geometry" />
        </mxCell>
        <mxCell id="scLiUEr0wlwhY-LounA5-164" value="Authentication Middleware" style="html=1;whiteSpace=wrap;horizontal=1;flipV=0;flipH=1;direction=west;fillColor=#fad9d5;strokeColor=#ae4132;" parent="1" vertex="1">
          <mxGeometry x="1710" y="444.5" width="200" height="40" as="geometry" />
        </mxCell>
        <mxCell id="scLiUEr0wlwhY-LounA5-169" style="edgeStyle=orthogonalEdgeStyle;rounded=0;orthogonalLoop=1;jettySize=auto;html=1;entryX=0.5;entryY=1;entryDx=0;entryDy=0;shape=flexArrow;fillColor=#d5e8d4;strokeColor=#82b366;gradientColor=#97d077;" parent="1" source="scLiUEr0wlwhY-LounA5-165" target="scLiUEr0wlwhY-LounA5-161" edge="1">
          <mxGeometry relative="1" as="geometry" />
        </mxCell>
        <mxCell id="scLiUEr0wlwhY-LounA5-180" style="edgeStyle=orthogonalEdgeStyle;rounded=0;orthogonalLoop=1;jettySize=auto;html=1;entryX=1;entryY=0.25;entryDx=0;entryDy=0;shape=flexArrow;fillColor=#fff2cc;strokeColor=#d6b656;startArrow=block;gradientColor=#ffd966;" parent="1" source="scLiUEr0wlwhY-LounA5-165" target="scLiUEr0wlwhY-LounA5-174" edge="1">
          <mxGeometry relative="1" as="geometry" />
        </mxCell>
        <mxCell id="scLiUEr0wlwhY-LounA5-165" value="Authorization Middleware" style="html=1;whiteSpace=wrap;horizontal=1;flipV=0;flipH=1;direction=west;fillColor=#fad9d5;strokeColor=#ae4132;" parent="1" vertex="1">
          <mxGeometry x="1710" y="525.5" width="200" height="40" as="geometry" />
        </mxCell>
        <mxCell id="scLiUEr0wlwhY-LounA5-174" value="Sequilize" style="rounded=1;whiteSpace=wrap;html=1;arcSize=5;verticalAlign=middle;fillColor=#fad7ac;strokeColor=#b46504;" parent="1" vertex="1">
          <mxGeometry x="1450" y="500.01" width="110" height="180.49" as="geometry" />
        </mxCell>
        <mxCell id="scLiUEr0wlwhY-LounA5-175" value="" style="edgeStyle=orthogonalEdgeStyle;rounded=0;orthogonalLoop=1;jettySize=auto;html=1;shape=flexArrow;startArrow=block;fillColor=#ffe6cc;strokeColor=#d79b00;" parent="1" source="scLiUEr0wlwhY-LounA5-99" target="scLiUEr0wlwhY-LounA5-174" edge="1">
          <mxGeometry relative="1" as="geometry" />
        </mxCell>
        <mxCell id="scLiUEr0wlwhY-LounA5-184" value="" style="endArrow=classic;html=1;rounded=0;entryX=1;entryY=0.5;entryDx=0;entryDy=0;edgeStyle=orthogonalEdgeStyle;dashed=1;strokeWidth=2;fillColor=#1ba1e2;strokeColor=#006EAF;" parent="1" target="scLiUEr0wlwhY-LounA5-163" edge="1">
          <mxGeometry width="50" height="50" relative="1" as="geometry">
            <mxPoint x="1680" y="244.5" as="sourcePoint" />
            <mxPoint x="1610" y="384.5" as="targetPoint" />
            <Array as="points">
              <mxPoint x="1680" y="289.5" />
            </Array>
          </mxGeometry>
        </mxCell>
        <mxCell id="scLiUEr0wlwhY-LounA5-185" value="/api/path" style="edgeLabel;html=1;align=center;verticalAlign=middle;resizable=0;points=[];labelBorderColor=none;labelBackgroundColor=default;" parent="scLiUEr0wlwhY-LounA5-184" vertex="1" connectable="0">
          <mxGeometry x="-0.8852" relative="1" as="geometry">
            <mxPoint y="11" as="offset" />
          </mxGeometry>
        </mxCell>
        <mxCell id="scLiUEr0wlwhY-LounA5-190" style="edgeStyle=orthogonalEdgeStyle;rounded=0;orthogonalLoop=1;jettySize=auto;html=1;entryX=0.109;entryY=0.002;entryDx=0;entryDy=0;entryPerimeter=0;shape=flexArrow;endWidth=21.212121212121215;endSize=6.793939393939395;width=15.757575757575758;fillColor=#fff2cc;strokeColor=#d6b656;" parent="1" target="scLiUEr0wlwhY-LounA5-183" edge="1">
          <mxGeometry relative="1" as="geometry">
            <mxPoint x="1686" y="164.5" as="sourcePoint" />
            <Array as="points">
              <mxPoint x="1686" y="214.5" />
              <mxPoint x="1686" y="214.5" />
            </Array>
          </mxGeometry>
        </mxCell>
        <mxCell id="scLiUEr0wlwhY-LounA5-191" value="HTTP Request" style="edgeLabel;html=1;align=center;verticalAlign=middle;resizable=0;points=[];labelBackgroundColor=none;" parent="scLiUEr0wlwhY-LounA5-190" vertex="1" connectable="0">
          <mxGeometry x="-0.6684" y="-2" relative="1" as="geometry">
            <mxPoint x="1" y="-15" as="offset" />
          </mxGeometry>
        </mxCell>
        <mxCell id="scLiUEr0wlwhY-LounA5-195" value="HTTP Response" style="html=1;shadow=0;dashed=0;align=center;verticalAlign=bottom;shape=mxgraph.arrows2.arrow;dy=0.71;dx=30.73;flipH=1;notch=0;direction=north;fillColor=#fad7ac;strokeColor=#b46504;labelPosition=center;verticalLabelPosition=top;" parent="1" vertex="1">
          <mxGeometry x="2030" y="174.5" width="60" height="508.49" as="geometry" />
        </mxCell>
        <mxCell id="scLiUEr0wlwhY-LounA5-196" style="edgeStyle=orthogonalEdgeStyle;rounded=0;orthogonalLoop=1;jettySize=auto;html=1;entryX=0.428;entryY=0.617;entryDx=0;entryDy=0;entryPerimeter=0;shape=flexArrow;fillColor=#fad7ac;strokeColor=#b46504;" parent="1" source="scLiUEr0wlwhY-LounA5-164" target="scLiUEr0wlwhY-LounA5-195" edge="1">
          <mxGeometry relative="1" as="geometry" />
        </mxCell>
        <mxCell id="scLiUEr0wlwhY-LounA5-197" style="edgeStyle=orthogonalEdgeStyle;rounded=0;orthogonalLoop=1;jettySize=auto;html=1;entryX=0.272;entryY=0.65;entryDx=0;entryDy=0;entryPerimeter=0;shape=flexArrow;fillColor=#fad7ac;strokeColor=#b46504;" parent="1" source="scLiUEr0wlwhY-LounA5-165" target="scLiUEr0wlwhY-LounA5-195" edge="1">
          <mxGeometry relative="1" as="geometry" />
        </mxCell>
        <mxCell id="scLiUEr0wlwhY-LounA5-198" style="edgeStyle=orthogonalEdgeStyle;rounded=0;orthogonalLoop=1;jettySize=auto;html=1;entryX=0.093;entryY=0.667;entryDx=0;entryDy=0;entryPerimeter=0;shape=flexArrow;fillColor=#d5e8d4;strokeColor=#82b366;gradientColor=#97d077;" parent="1" source="scLiUEr0wlwhY-LounA5-161" target="scLiUEr0wlwhY-LounA5-195" edge="1">
          <mxGeometry relative="1" as="geometry" />
        </mxCell>
        <mxCell id="scLiUEr0wlwhY-LounA5-199" style="edgeStyle=orthogonalEdgeStyle;rounded=0;orthogonalLoop=1;jettySize=auto;html=1;entryX=0.626;entryY=0.625;entryDx=0;entryDy=0;entryPerimeter=0;shape=flexArrow;fillColor=#fad7ac;strokeColor=#b46504;" parent="1" source="scLiUEr0wlwhY-LounA5-162" target="scLiUEr0wlwhY-LounA5-195" edge="1">
          <mxGeometry relative="1" as="geometry" />
        </mxCell>
        <mxCell id="scLiUEr0wlwhY-LounA5-200" style="edgeStyle=orthogonalEdgeStyle;rounded=0;orthogonalLoop=1;jettySize=auto;html=1;entryX=0.773;entryY=0.637;entryDx=0;entryDy=0;entryPerimeter=0;fillColor=#fad7ac;strokeColor=#b46504;shape=flexArrow;" parent="1" source="scLiUEr0wlwhY-LounA5-163" target="scLiUEr0wlwhY-LounA5-195" edge="1">
          <mxGeometry relative="1" as="geometry" />
        </mxCell>
        <mxCell id="scLiUEr0wlwhY-LounA5-203" style="edgeStyle=orthogonalEdgeStyle;rounded=0;orthogonalLoop=1;jettySize=auto;html=1;entryX=0;entryY=0.5;entryDx=0;entryDy=0;entryPerimeter=0;endArrow=none;endFill=0;startArrow=block;startFill=1;fillColor=#cce5ff;strokeColor=#6666FF;" parent="1" source="scLiUEr0wlwhY-LounA5-5" target="scLiUEr0wlwhY-LounA5-95" edge="1">
          <mxGeometry relative="1" as="geometry" />
        </mxCell>
        <mxCell id="scLiUEr0wlwhY-LounA5-207" style="rounded=0;orthogonalLoop=1;jettySize=auto;html=1;exitX=1;exitY=0;exitDx=0;exitDy=0;entryX=0;entryY=0;entryDx=0;entryDy=0;dashed=1;strokeColor=#7EA6E0;endArrow=none;endFill=0;" parent="1" target="scLiUEr0wlwhY-LounA5-206" edge="1">
          <mxGeometry relative="1" as="geometry">
            <mxPoint x="1257" y="495.5" as="sourcePoint" />
          </mxGeometry>
        </mxCell>
        <mxCell id="scLiUEr0wlwhY-LounA5-208" style="rounded=0;orthogonalLoop=1;jettySize=auto;html=1;exitX=1;exitY=1;exitDx=0;exitDy=0;entryX=0;entryY=1;entryDx=0;entryDy=0;strokeColor=#7EA6E0;dashed=1;endArrow=none;endFill=0;" parent="1" target="scLiUEr0wlwhY-LounA5-206" edge="1">
          <mxGeometry relative="1" as="geometry">
            <mxPoint x="1257" y="615.5" as="sourcePoint" />
          </mxGeometry>
        </mxCell>
        <mxCell id="scLiUEr0wlwhY-LounA5-3" value="" style="image;aspect=fixed;perimeter=ellipsePerimeter;html=1;align=center;shadow=0;dashed=0;spacingTop=3;image=img/lib/active_directory/web_server.svg;" parent="1" vertex="1">
          <mxGeometry x="1182" y="530.5" width="40" height="50" as="geometry" />
        </mxCell>
      </root>
    </mxGraphModel>
  </diagram>
</mxfile>
